<mxfile host="app.diagrams.net" modified="2020-11-21T03:14:29.574Z" agent="5.0 (Windows NT 10.0; Win64; x64) AppleWebKit/537.36 (KHTML, like Gecko) Chrome/86.0.4240.198 Safari/537.36" etag="ZwU8wVR7YkAzPUWCguEv" version="13.10.0" type="github">
  <diagram id="iOUBFtHq3W5OPp4owIrx" name="Page-1">
    <mxGraphModel dx="1422" dy="762" grid="1" gridSize="10" guides="1" tooltips="1" connect="1" arrows="1" fold="1" page="1" pageScale="1" pageWidth="827" pageHeight="1169" math="0" shadow="0">
      <root>
        <mxCell id="0" />
        <mxCell id="1" parent="0" />
        <mxCell id="LzQWK56zOMO2MJdxcZOq-3" style="edgeStyle=orthogonalEdgeStyle;rounded=1;orthogonalLoop=1;jettySize=auto;html=1;entryX=0.5;entryY=0;entryDx=0;entryDy=0;" edge="1" parent="1" source="LzQWK56zOMO2MJdxcZOq-1" target="LzQWK56zOMO2MJdxcZOq-2">
          <mxGeometry relative="1" as="geometry" />
        </mxCell>
        <mxCell id="LzQWK56zOMO2MJdxcZOq-11" style="edgeStyle=orthogonalEdgeStyle;rounded=1;orthogonalLoop=1;jettySize=auto;html=1;" edge="1" parent="1" source="LzQWK56zOMO2MJdxcZOq-1" target="LzQWK56zOMO2MJdxcZOq-10">
          <mxGeometry relative="1" as="geometry" />
        </mxCell>
        <mxCell id="LzQWK56zOMO2MJdxcZOq-12" style="edgeStyle=orthogonalEdgeStyle;rounded=1;orthogonalLoop=1;jettySize=auto;html=1;" edge="1" parent="1" source="LzQWK56zOMO2MJdxcZOq-1" target="LzQWK56zOMO2MJdxcZOq-9">
          <mxGeometry relative="1" as="geometry" />
        </mxCell>
        <mxCell id="LzQWK56zOMO2MJdxcZOq-1" value="Bike&lt;br&gt;&lt;br&gt;methodA()&lt;br&gt;methodB()" style="rounded=0;whiteSpace=wrap;html=1;fillColor=#d5e8d4;strokeColor=#82b366;" vertex="1" parent="1">
          <mxGeometry x="311" y="150" width="196" height="80" as="geometry" />
        </mxCell>
        <mxCell id="LzQWK56zOMO2MJdxcZOq-6" style="edgeStyle=orthogonalEdgeStyle;rounded=1;orthogonalLoop=1;jettySize=auto;html=1;" edge="1" parent="1" source="LzQWK56zOMO2MJdxcZOq-2" target="LzQWK56zOMO2MJdxcZOq-4">
          <mxGeometry relative="1" as="geometry" />
        </mxCell>
        <mxCell id="LzQWK56zOMO2MJdxcZOq-7" style="edgeStyle=orthogonalEdgeStyle;rounded=1;orthogonalLoop=1;jettySize=auto;html=1;" edge="1" parent="1" source="LzQWK56zOMO2MJdxcZOq-2" target="LzQWK56zOMO2MJdxcZOq-5">
          <mxGeometry relative="1" as="geometry" />
        </mxCell>
        <mxCell id="LzQWK56zOMO2MJdxcZOq-2" value="装饰者组件&lt;br&gt;BikeDecorator" style="rounded=0;whiteSpace=wrap;html=1;fillColor=#dae8fc;strokeColor=#6c8ebf;" vertex="1" parent="1">
          <mxGeometry x="311" y="290" width="196" height="80" as="geometry" />
        </mxCell>
        <mxCell id="LzQWK56zOMO2MJdxcZOq-4" value="具体装饰&lt;br&gt;RSCBikeDecorator&lt;br&gt;" style="rounded=0;whiteSpace=wrap;html=1;fillColor=#dae8fc;strokeColor=#6c8ebf;" vertex="1" parent="1">
          <mxGeometry x="115" y="450" width="196" height="80" as="geometry" />
        </mxCell>
        <mxCell id="LzQWK56zOMO2MJdxcZOq-5" value="具体装饰&lt;br&gt;SuonaBikeDecorator" style="rounded=0;whiteSpace=wrap;html=1;fillColor=#dae8fc;strokeColor=#6c8ebf;" vertex="1" parent="1">
          <mxGeometry x="507" y="450" width="196" height="80" as="geometry" />
        </mxCell>
        <mxCell id="LzQWK56zOMO2MJdxcZOq-9" value="BigBike&lt;br&gt;methodA()&lt;br&gt;mehtodB()" style="rounded=0;whiteSpace=wrap;html=1;fillColor=#dae8fc;strokeColor=#6c8ebf;" vertex="1" parent="1">
          <mxGeometry x="21" y="290" width="196" height="80" as="geometry" />
        </mxCell>
        <mxCell id="LzQWK56zOMO2MJdxcZOq-10" value="SmallBike&lt;br&gt;mehtodA()&lt;br&gt;methodB()" style="rounded=0;whiteSpace=wrap;html=1;fillColor=#dae8fc;strokeColor=#6c8ebf;" vertex="1" parent="1">
          <mxGeometry x="611" y="290" width="196" height="80" as="geometry" />
        </mxCell>
        <mxCell id="LzQWK56zOMO2MJdxcZOq-13" value="&lt;font style=&quot;font-size: 18px&quot;&gt;装饰者模式：&lt;/font&gt;" style="text;html=1;strokeColor=none;fillColor=none;align=left;verticalAlign=middle;whiteSpace=wrap;rounded=0;" vertex="1" parent="1">
          <mxGeometry x="75" y="30" width="315" height="50" as="geometry" />
        </mxCell>
      </root>
    </mxGraphModel>
  </diagram>
</mxfile>
